<?xml version="1.0" encoding="utf-8"?>
<!-- Generator: Adobe Illustrator 20.1.0, SVG Export Plug-In . SVG Version: 6.00 Build 0)  -->
<svg version="1.1" id="Layer_1" xmlns="http://www.w3.org/2000/svg" xmlns:xlink="http://www.w3.org/1999/xlink" x="0px" y="0px"
	 viewBox="0 0 682.8 180" style="enable-background:new 0 0 682.8 180;" xml:space="preserve">
<style type="text/css">
	.st0{fill:#1561CB;}
	.st1{fill:#5295D5;}
	.st2{fill:#808080;}
	.st3{fill:#FF6120;}
	.st4{fill:#2ABB9C;}
	.st5{fill:none;stroke:#FFFFFF;stroke-width:11;}
</style>
<path class="st0" d="M44.1,90.6c0.1-26.8,17-51.1,42.1-60.5c25.2-9.5,53.7-2.4,71.5,17.8c1.4,1.6,3.7,3,0.6,5.5
	c-2.9,2.4-3.7,0-5-1.4c-17.3-19.2-43.6-25.3-67-15.6C63,46.1,48.1,69.3,50.2,94.8c2,24.6,15.1,41.7,37.9,51.3
	c1.3,0.5,4.7,0.8,3.4,3.1c-1.3,4.3-0.8,4.8-5.2,2.7c-19.4-7.8-32.6-21.4-39.3-41.3C45,104.2,44,97.5,44.1,90.6z"/>
<path class="st1" d="M109.2,141c-20.7,0-39.6-13-46.7-32.2c-0.5-1.3-2.7-3.4,0.5-4.4c2.5-0.8,4.1-0.5,5.3,2.5
	c8,19.3,26.6,30.5,46,27.9c20.8-2.7,36.1-18.2,38.7-39.7c0.4-3.3,1.9-3.8,4.4-3.7c3.2,0.2,1.8,2.7,1.7,4.2
	C156.9,120.9,134.8,141,109.2,141z"/>
<path class="st2" d="M109.5,41c20.8,0.1,39.8,13.6,46.6,33.1c0.6,1.7,2.2,3.7-1.1,4.8c-2.7,0.9-3.7-0.4-4.6-2.7
	C139.9,50,113.6,40,88.1,52.5c-3.4,1.7-4.9,0-6-2c-1.3-2.4,1.8-2.6,3-3.3C92.7,43,100.8,40.9,109.5,41z"/>
<path class="st3" d="M174.1,92c-0.2,14.1-4.8,27.3-13.9,39.1c-1.3,1.7-2.2,3.6-5,1.4c-2.9-2.2-0.9-3.5,0.3-5.1
	c14.2-19.3,16.5-39.8,6.8-61.7c-0.7-1.5-2.3-3-0.1-4.8c2-1.6,3.3-2.5,4.8,0.6C171.7,70.8,174.1,80.7,174.1,92z"/>
<path class="st3" d="M107.6,61.6c-4.7,0.8-9.1,1.6-13.1,3.7C78.7,74,74.3,94,85.1,108.6c0.8,1.1,2.7,2,1.8,3.7
	c-0.7,1.3-1.7,2.6-3,3.2c-1.1,0.6-1.9-1-2.6-1.9c-8.2-10.4-10.8-22-6.1-34.6c4.8-12.8,14.3-20.1,27.6-22.7
	C107.5,55.4,106.5,59.2,107.6,61.6z"/>
<path class="st4" d="M-123.7,215.9"/>
<circle class="st5" cx="109.8" cy="91.6" r="78.2"/>
<path class="st3" d="M262,105.9c0-3.1-1.2-5.6-3.7-7.5c-2.5-1.9-6.2-3.4-11.3-4.4c-5-1.1-8.9-2.3-11.7-3.7c-2.8-1.4-4.8-3.1-6.2-5
	s-2-4.4-2-7.2c0-4.5,1.9-8.1,5.6-11.1c3.7-2.9,8.5-4.4,14.3-4.4c6.3,0,11.4,1.6,15.2,4.7c3.8,3.1,5.7,7.2,5.7,12.2h-6.3
	c0-3.3-1.4-6.1-4.2-8.3c-2.8-2.2-6.3-3.3-10.5-3.3c-4.1,0-7.4,0.9-9.9,2.7c-2.5,1.8-3.7,4.2-3.7,7.1c0,2.8,1,5,3.1,6.6
	c2.1,1.5,5.9,3,11.3,4.3c5.5,1.3,9.6,2.7,12.3,4.1s4.8,3.2,6.1,5.3c1.3,2.1,2,4.5,2,7.5c0,4.8-1.9,8.6-5.8,11.4
	c-3.8,2.9-8.9,4.3-15.1,4.3c-6.6,0-11.9-1.6-16-4.8c-4.1-3.2-6.1-7.2-6.1-12.1h6.3c0.2,3.7,1.8,6.5,4.6,8.5c2.8,2,6.6,3.1,11.3,3.1
	c4.4,0,7.9-1,10.6-2.9C260.7,111.2,262,108.8,262,105.9z"/>
<path class="st3" d="M282,47.4c0-1.2,0.4-2.2,1.1-3c0.8-0.8,1.8-1.2,3.1-1.2c1.3,0,2.4,0.4,3.2,1.2c0.8,0.8,1.2,1.8,1.2,3
	c0,1.2-0.4,2.2-1.2,3c-0.8,0.8-1.8,1.2-3.2,1.2c-1.3,0-2.4-0.4-3.1-1.2C282.3,49.6,282,48.6,282,47.4z M289.3,120.3h-6.3V63.7h6.3
	V120.3z"/>
<path class="st3" d="M316,49.2v14.5h11.7v5.1H316v37.7c0,3.1,0.6,5.5,1.7,7c1.1,1.5,3,2.3,5.7,2.3c1,0,2.7-0.2,5.1-0.5l0.3,5.1
	c-1.6,0.6-3.9,0.9-6.7,0.9c-4.3,0-7.4-1.2-9.4-3.7c-2-2.5-2.9-6.2-2.9-11V68.8h-10.4v-5.1h10.4V49.2H316z"/>
<path class="st3" d="M362.6,121.3c-4.8,0-9.2-1.2-13-3.6c-3.9-2.4-6.9-5.7-9.1-9.9c-2.2-4.2-3.2-9-3.2-14.2v-2.2
	c0-5.4,1.1-10.3,3.2-14.7c2.1-4.4,5-7.8,8.8-10.3c3.8-2.5,7.8-3.7,12.2-3.7c6.9,0,12.3,2.3,16.3,7c4,4.7,6,11.1,6,19.2v3.5h-40.3
	v1.2c0,6.4,1.8,11.7,5.5,16c3.7,4.3,8.3,6.4,13.9,6.4c3.3,0,6.3-0.6,8.9-1.8c2.6-1.2,4.9-3.2,7-5.9l3.9,3
	C378,118,371.3,121.3,362.6,121.3z M361.4,68c-4.7,0-8.7,1.7-11.9,5.2s-5.2,8.1-5.9,13.9h33.9v-0.7c-0.2-5.4-1.7-9.9-4.6-13.3
	C370,69.7,366.2,68,361.4,68z"/>
<path class="st0" d="M402.2,73.3c2.1-3.4,4.7-6,7.9-7.8c3.2-1.8,6.7-2.8,10.5-2.8c6.1,0,10.6,1.7,13.5,5.1c3,3.4,4.5,8.5,4.5,15.4
	v37.1h-6.2V83.1c0-5-1.1-8.8-3.2-11.3c-2.1-2.5-5.5-3.7-10.1-3.7c-3.9,0-7.3,1.2-10.3,3.6c-3,2.4-5.2,5.7-6.6,9.8v38.7H396V40h6.2
	V73.3z"/>
<path class="st0" d="M490.4,120.3c-0.6-1.8-1-4.4-1.2-7.9c-2.2,2.9-5,5.1-8.4,6.6c-3.4,1.5-7,2.3-10.8,2.3c-5.4,0-9.8-1.5-13.2-4.5
	c-3.4-3-5-6.9-5-11.5c0-5.5,2.3-9.9,6.9-13.1s11-4.8,19.1-4.8h11.3V81c0-4-1.2-7.2-3.7-9.5c-2.5-2.3-6.1-3.5-10.9-3.5
	c-4.4,0-8,1.1-10.8,3.3c-2.9,2.2-4.3,4.9-4.3,8l-6.3-0.1c0-4.5,2.1-8.4,6.3-11.7c4.2-3.3,9.3-4.9,15.4-4.9c6.3,0,11.3,1.6,14.9,4.7
	c3.6,3.2,5.5,7.5,5.6,13.2v26.8c0,5.5,0.6,9.6,1.7,12.3v0.6H490.4z M470.7,115.8c4.2,0,7.9-1,11.2-3c3.3-2,5.7-4.7,7.2-8.1V92.2
	h-11.2c-6.2,0.1-11.1,1.2-14.6,3.4c-3.5,2.2-5.3,5.3-5.3,9.1c0,3.2,1.2,5.8,3.5,7.9C463.9,114.7,467,115.8,470.7,115.8z"/>
<path class="st0" d="M518,63.7l0.2,9.7c2.1-3.5,4.8-6.1,7.9-8c3.2-1.8,6.7-2.7,10.5-2.7c6.1,0,10.6,1.7,13.5,5.1
	c3,3.4,4.5,8.5,4.5,15.4v37.1h-6.2V83.1c0-5-1.1-8.8-3.2-11.3c-2.1-2.5-5.5-3.7-10.1-3.7c-3.9,0-7.3,1.2-10.3,3.6
	c-3,2.4-5.2,5.7-6.6,9.8v38.7H512V63.7H518z"/>
<path class="st0" d="M568.3,91.5c0-8.8,2-15.8,5.9-21c3.9-5.2,9.2-7.8,16-7.8c7.6,0,13.4,3,17.5,9V40h6.2v80.2h-5.9l-0.3-7.5
	c-4,5.7-9.9,8.6-17.7,8.6c-6.5,0-11.8-2.6-15.8-7.9c-4-5.2-6-12.3-6-21.2V91.5z M574.6,92.6c0,7.2,1.4,12.9,4.3,17.1
	c2.9,4.2,7,6.2,12.2,6.2c7.7,0,13.2-3.4,16.4-10.2V79.1c-3.2-7.3-8.7-11-16.3-11c-5.3,0-9.4,2.1-12.3,6.2
	C576.1,78.4,574.6,84.5,574.6,92.6z"/>
<path class="st0" d="M664.1,105.9c0-3.1-1.2-5.6-3.7-7.5c-2.5-1.9-6.2-3.4-11.3-4.4c-5-1.1-8.9-2.3-11.7-3.7c-2.8-1.4-4.8-3.1-6.2-5
	s-2-4.4-2-7.2c0-4.5,1.9-8.1,5.6-11.1c3.7-2.9,8.5-4.4,14.3-4.4c6.3,0,11.4,1.6,15.2,4.7c3.8,3.1,5.7,7.2,5.7,12.2h-6.3
	c0-3.3-1.4-6.1-4.2-8.3c-2.8-2.2-6.3-3.3-10.5-3.3c-4.1,0-7.4,0.9-9.9,2.7c-2.5,1.8-3.7,4.2-3.7,7.1c0,2.8,1,5,3.1,6.6
	c2.1,1.5,5.9,3,11.3,4.3c5.5,1.3,9.6,2.7,12.3,4.1s4.8,3.2,6.1,5.3c1.3,2.1,2,4.5,2,7.5c0,4.8-1.9,8.6-5.8,11.4
	c-3.8,2.9-8.9,4.3-15.1,4.3c-6.6,0-11.9-1.6-16-4.8c-4.1-3.2-6.1-7.2-6.1-12.1h6.3c0.2,3.7,1.8,6.5,4.6,8.5c2.8,2,6.6,3.1,11.3,3.1
	c4.4,0,7.9-1,10.6-2.9C662.8,111.2,664.1,108.8,664.1,105.9z"/>
</svg>
