<?xml version="1.0" encoding="utf-8"?>
<!-- Generator: Adobe Illustrator 19.0.0, SVG Export Plug-In . SVG Version: 6.00 Build 0)  -->
<svg version="1.1" id="Layer_1" xmlns="http://www.w3.org/2000/svg" xmlns:xlink="http://www.w3.org/1999/xlink" x="50px" y="50px"
	 viewBox="-215 307 180 180" style="enable-background:new -215 307 180 180;" xml:space="preserve">
<style type="text/css">
	.st0{fill:#FFFFFF;stroke:#FFFFFF;stroke-width:11;}
	.st1{fill:#1561CB;}
	.st2{fill:#5295D5;}
	.st3{fill:#808080;}
	.st4{fill:#FF6120;}
	.st5{fill:#2ABB9C;}
</style>
<circle class="st0" cx="-126.3" cy="397.5" r="65.6"/>
<g>
	<path class="st1" d="M-190.9,397.6c0.1-26.8,17-51.1,42.1-60.5c25.2-9.5,53.7-2.4,71.5,17.8c1.4,1.6,3.7,3,0.6,5.5
		c-2.9,2.4-3.7,0-5-1.4c-17.3-19.2-43.6-25.3-67-15.6c-23.3,9.7-38.2,32.9-36.1,58.4c2,24.6,15.1,41.7,37.9,51.3
		c1.3,0.5,4.7,0.8,3.4,3.1c-1.3,4.3-0.8,4.8-5.2,2.7c-19.4-7.8-32.6-21.4-39.3-41.3C-190,411.2-191,404.5-190.9,397.6z"/>
	<path class="st2" d="M-125.8,448c-20.7,0-39.6-13-46.7-32.2c-0.5-1.3-2.7-3.4,0.5-4.4c2.5-0.8,4.1-0.5,5.3,2.5
		c8,19.3,26.6,30.5,46,27.9c20.8-2.7,36.1-18.2,38.7-39.7c0.4-3.3,1.9-3.8,4.4-3.7c3.2,0.2,1.8,2.7,1.7,4.2
		C-78.1,427.9-100.2,448-125.8,448z"/>
	<path class="st3" d="M-125.5,348c20.8,0.1,39.8,13.6,46.6,33.1c0.6,1.7,2.2,3.7-1.1,4.8c-2.7,0.9-3.7-0.4-4.6-2.7
		c-10.5-26.2-36.8-36.2-62.3-23.7c-3.4,1.7-4.9,0-6-2c-1.3-2.4,1.8-2.6,3-3.3C-142.3,350-134.2,347.9-125.5,348z"/>
	<path class="st4" d="M-60.9,399c-0.2,14.1-4.8,27.3-13.9,39.1c-1.3,1.7-2.2,3.6-5,1.4c-2.9-2.2-0.9-3.5,0.3-5.1
		c14.2-19.3,16.5-39.8,6.8-61.7c-0.7-1.5-2.3-3-0.1-4.8c2-1.6,3.3-2.5,4.8,0.6C-63.3,377.8-60.9,387.7-60.9,399z"/>
	<path class="st4" d="M-127.4,368.6c-4.7,0.8-9.1,1.6-13.1,3.7c-15.8,8.7-20.2,28.7-9.4,43.3c0.8,1.1,2.7,2,1.8,3.7
		c-0.7,1.3-1.7,2.6-3,3.2c-1.1,0.6-1.9-1-2.6-1.9c-8.2-10.4-10.8-22-6.1-34.6c4.8-12.8,14.3-20.1,27.6-22.7
		C-127.5,362.4-128.5,366.2-127.4,368.6z"/>
	<path class="st5" d="M-338.7,522.9"/>
</g>
</svg>
