<?xml version="1.0" encoding="utf-8"?>
<!-- Generator: Adobe Illustrator 19.0.0, SVG Export Plug-In . SVG Version: 6.00 Build 0)  -->
<svg version="1.1" id="Layer_1" xmlns="http://www.w3.org/2000/svg" xmlns:xlink="http://www.w3.org/1999/xlink" x="0px" y="0px"
	 viewBox="0 0 180 180" style="enable-background:new 0 0 180 180;" xml:space="preserve">
<style type="text/css">
	.st0{fill:#1561CB;}
	.st1{fill:#5295D5;}
	.st2{fill:#808080;}
	.st3{fill:#FF6120;}
	.st4{fill:#2ABB9C;}
	.st5{fill:none;stroke:#FFFFFF;stroke-width:11;}
</style>
<g>
	<path class="st0" d="M24.1,90.6c0.1-26.8,17-51.1,42.1-60.5c25.2-9.5,53.7-2.4,71.5,17.8c1.4,1.6,3.7,3,0.6,5.5
		c-2.9,2.4-3.7,0-5-1.4c-17.3-19.2-43.6-25.3-67-15.6c-23.3,9.7-38.2,32.9-36.1,58.4c2,24.6,15.1,41.7,37.9,51.3
		c1.3,0.5,4.7,0.8,3.4,3.1c-1.3,4.3-0.8,4.8-5.2,2.7c-19.4-7.8-32.6-21.4-39.3-41.3C25,104.2,24,97.5,24.1,90.6z"/>
	<path class="st1" d="M89.2,141c-20.7,0-39.6-13-46.7-32.2c-0.5-1.3-2.7-3.4,0.5-4.4c2.5-0.8,4.1-0.5,5.3,2.5
		c8,19.3,26.6,30.5,46,27.9c20.8-2.7,36.1-18.2,38.7-39.7c0.4-3.3,1.9-3.8,4.4-3.7c3.2,0.2,1.8,2.7,1.7,4.2
		C136.9,120.9,114.8,141,89.2,141z"/>
	<path class="st2" d="M89.5,41c20.8,0.1,39.8,13.6,46.6,33.1c0.6,1.7,2.2,3.7-1.1,4.8c-2.7,0.9-3.7-0.4-4.6-2.7
		C119.9,50,93.6,40,68.1,52.5c-3.4,1.7-4.9,0-6-2c-1.3-2.4,1.8-2.6,3-3.3C72.7,43,80.8,40.9,89.5,41z"/>
	<path class="st3" d="M154.1,92c-0.2,14.1-4.8,27.3-13.9,39.1c-1.3,1.7-2.2,3.6-5,1.4c-2.9-2.2-0.9-3.5,0.3-5.1
		c14.2-19.3,16.5-39.8,6.8-61.7c-0.7-1.5-2.3-3-0.1-4.8c2-1.6,3.3-2.5,4.8,0.6C151.7,70.8,154.1,80.7,154.1,92z"/>
	<path class="st3" d="M87.6,61.6c-4.7,0.8-9.1,1.6-13.1,3.7C58.7,74,54.3,94,65.1,108.6c0.8,1.1,2.7,2,1.8,3.7
		c-0.7,1.3-1.7,2.6-3,3.2c-1.1,0.6-1.9-1-2.6-1.9c-8.2-10.4-10.8-22-6.1-34.6C60,66.2,69.5,58.9,82.8,56.3
		C87.5,55.4,86.5,59.2,87.6,61.6z"/>
	<path class="st4" d="M-123.7,215.9"/>
</g>
<circle class="st5" cx="89.8" cy="91.6" r="78.2"/>
</svg>
