<?xml version="1.0" encoding="utf-8"?>
<!-- Generator: Adobe Illustrator 20.1.0, SVG Export Plug-In . SVG Version: 6.00 Build 0)  -->
<svg version="1.1" id="Layer_1" xmlns="http://www.w3.org/2000/svg" xmlns:xlink="http://www.w3.org/1999/xlink" x="0px" y="0px"
	 viewBox="0 0 682.8 180" style="enable-background:new 0 0 682.8 180;" xml:space="preserve">
<style type="text/css">
	.st0{fill:#FF6120;}
	.st1{fill:#1561CB;}
	.st2{fill:#5295D5;}
	.st3{fill:#808080;}
	.st4{fill:#2ABB9C;}
	.st5{fill:none;stroke:#FFFFFF;stroke-width:11;}
</style>
<g>
	<path class="st0" d="M247.4,46.5v14.3h11v7.8h-11v36.7c0,2.4,0.5,4.2,1.5,5.3c1,1.2,2.7,1.8,5,1.8c1.2,0,2.8-0.2,4.8-0.7v8.2
		c-2.7,0.7-5.2,1.1-7.8,1.1c-4.5,0-7.9-1.4-10.2-4.1s-3.4-6.6-3.4-11.6V68.6h-10.8v-7.8h10.8V46.5H247.4z"/>
	<path class="st0" d="M306.8,120c-0.6-1.2-1.1-3.2-1.4-6.2c-4.7,4.9-10.3,7.3-16.8,7.3c-5.8,0-10.6-1.6-14.4-4.9
		c-3.7-3.3-5.6-7.5-5.6-12.6c0-6.2,2.3-10.9,7-14.4c4.7-3.4,11.3-5.1,19.8-5.1h9.8v-4.6c0-3.5-1.1-6.4-3.2-8.4
		c-2.1-2.1-5.2-3.1-9.4-3.1c-3.6,0-6.6,0.9-9.1,2.7c-2.4,1.8-3.7,4-3.7,6.6h-10.2c0-3,1-5.8,3.1-8.6c2.1-2.8,4.9-4.9,8.5-6.5
		c3.6-1.6,7.5-2.4,11.8-2.4c6.8,0,12.2,1.7,16,5.1c3.9,3.4,5.9,8.1,6,14.1v27.2c0,5.4,0.7,9.8,2.1,13v0.9H306.8z M290,112.3
		c3.2,0,6.2-0.8,9-2.5s4.9-3.8,6.2-6.4V91.3h-7.9c-12.4,0-18.6,3.6-18.6,10.9c0,3.2,1.1,5.7,3.2,7.4
		C284,111.4,286.7,112.3,290,112.3z"/>
	<path class="st0" d="M381.1,91.1c0,9-2.1,16.3-6.2,21.8c-4.1,5.5-9.7,8.3-16.7,8.3c-7.2,0-12.8-2.3-17-6.8v28.5h-10.1V60.8h9.2
		l0.5,6.6c4.1-5.1,9.8-7.7,17.2-7.7c7.1,0,12.7,2.7,16.9,8c4.1,5.4,6.2,12.8,6.2,22.4V91.1z M371,89.9c0-6.7-1.4-11.9-4.3-15.8
		c-2.8-3.9-6.7-5.8-11.7-5.8c-6.1,0-10.7,2.7-13.8,8.1v28.3c3,5.4,7.7,8.1,13.9,8.1c4.8,0,8.7-1.9,11.6-5.8
		C369.6,103.2,371,97.5,371,89.9z"/>
	<path class="st1" d="M392.2,89.9c0-9.3,2.1-16.6,6.2-22s9.7-8.1,16.7-8.1c8.1,0,14.2,3.2,18.4,9.6l0.3-8.5h6.1v58
		c0,7.6-2.1,13.7-6.4,18.1c-4.3,4.4-10,6.7-17.3,6.7c-4.1,0-8-0.9-11.8-2.8c-3.7-1.8-6.7-4.3-8.8-7.4l3.7-3.9
		c4.6,5.7,10.1,8.5,16.5,8.5c5.5,0,9.7-1.6,12.8-4.8s4.6-7.7,4.8-13.4v-7.4c-4.2,5.8-10.3,8.8-18.3,8.8c-6.9,0-12.4-2.7-16.5-8.2
		s-6.2-12.9-6.2-22.1V89.9z M398.9,91c0,7.5,1.5,13.5,4.5,17.9c3,4.4,7.3,6.5,12.8,6.5c8.1,0,13.8-3.6,17.1-10.8V77.1
		c-1.5-3.8-3.7-6.7-6.6-8.7c-2.9-2-6.3-3-10.4-3c-5.5,0-9.8,2.2-12.9,6.5S398.9,82.6,398.9,91z"/>
	<path class="st1" d="M464.3,120h-6.6V36h6.6V120z"/>
	<path class="st1" d="M519.5,120c-0.7-1.9-1.1-4.6-1.3-8.3c-2.3,3-5.2,5.3-8.8,6.9s-7.3,2.4-11.3,2.4c-5.7,0-10.3-1.6-13.8-4.8
		c-3.5-3.2-5.3-7.2-5.3-12c0-5.8,2.4-10.3,7.2-13.7c4.8-3.4,11.5-5,20-5h11.9v-6.7c0-4.2-1.3-7.6-3.9-10c-2.6-2.4-6.4-3.6-11.4-3.6
		c-4.6,0-8.3,1.2-11.3,3.5c-3,2.3-4.5,5.1-4.5,8.4l-6.6-0.1c0-4.7,2.2-8.8,6.6-12.2s9.8-5.2,16.1-5.2c6.6,0,11.8,1.6,15.6,4.9
		c3.8,3.3,5.8,7.9,5.9,13.8v28c0,5.7,0.6,10,1.8,12.9v0.7H519.5z M498.9,115.3c4.4,0,8.3-1.1,11.7-3.2c3.4-2.1,6-4.9,7.5-8.5v-13
		h-11.7c-6.5,0.1-11.6,1.3-15.3,3.6c-3.7,2.3-5.5,5.5-5.5,9.5c0,3.3,1.2,6.1,3.7,8.3S495,115.3,498.9,115.3z"/>
	<path class="st1" d="M577.5,105c0-3.2-1.3-5.9-3.9-7.8c-2.6-2-6.5-3.5-11.8-4.6c-5.2-1.1-9.3-2.4-12.2-3.8c-2.9-1.4-5-3.2-6.5-5.3
		c-1.4-2.1-2.1-4.6-2.1-7.5c0-4.7,2-8.5,5.9-11.6c3.9-3,8.9-4.6,15-4.6c6.6,0,11.9,1.6,15.9,4.9c4,3.3,6,7.5,6,12.8h-6.6
		c0-3.5-1.4-6.3-4.3-8.6s-6.6-3.4-11-3.4c-4.3,0-7.8,1-10.4,2.9c-2.6,1.9-3.9,4.4-3.9,7.5c0,3,1.1,5.2,3.3,6.9
		c2.2,1.6,6.1,3.1,11.9,4.5c5.7,1.3,10,2.8,12.9,4.3c2.9,1.5,5,3.4,6.4,5.5c1.4,2.2,2.1,4.8,2.1,7.8c0,5-2,9-6,12
		c-4,3-9.3,4.5-15.8,4.5c-6.9,0-12.5-1.7-16.8-5c-4.3-3.3-6.4-7.6-6.4-12.7h6.6c0.3,3.8,1.9,6.8,4.8,8.9c3,2.1,6.9,3.2,11.8,3.2
		c4.6,0,8.2-1,11-3C576.1,110.6,577.5,108,577.5,105z"/>
	<path class="st1" d="M634.2,105c0-3.2-1.3-5.9-3.9-7.8c-2.6-2-6.5-3.5-11.8-4.6c-5.2-1.1-9.3-2.4-12.2-3.8c-2.9-1.4-5-3.2-6.5-5.3
		c-1.4-2.1-2.1-4.6-2.1-7.5c0-4.7,2-8.5,5.9-11.6c3.9-3,8.9-4.6,15-4.6c6.6,0,11.9,1.6,15.9,4.9c4,3.3,6,7.5,6,12.8h-6.6
		c0-3.5-1.4-6.3-4.3-8.6s-6.6-3.4-11-3.4c-4.3,0-7.8,1-10.4,2.9c-2.6,1.9-3.9,4.4-3.9,7.5c0,3,1.1,5.2,3.3,6.9
		c2.2,1.6,6.1,3.1,11.9,4.5c5.7,1.3,10,2.8,12.9,4.3c2.9,1.5,5,3.4,6.4,5.5c1.4,2.2,2.1,4.8,2.1,7.8c0,5-2,9-6,12
		c-4,3-9.3,4.5-15.8,4.5c-6.9,0-12.5-1.7-16.8-5c-4.3-3.3-6.4-7.6-6.4-12.7h6.6c0.3,3.8,1.9,6.8,4.8,8.9c3,2.1,6.9,3.2,11.8,3.2
		c4.6,0,8.2-1,11-3C632.8,110.6,634.2,108,634.2,105z"/>
</g>
<path class="st1" d="M44.1,90.6c0.1-26.8,17-51.1,42.1-60.5c25.2-9.5,53.7-2.4,71.5,17.8c1.4,1.6,3.7,3,0.6,5.5
	c-2.9,2.4-3.7,0-5-1.4c-17.3-19.2-43.6-25.3-67-15.6C63,46.1,48.1,69.3,50.2,94.8c2,24.6,15.1,41.7,37.9,51.3
	c1.3,0.5,4.7,0.8,3.4,3.1c-1.3,4.3-0.8,4.8-5.2,2.7c-19.4-7.8-32.6-21.4-39.3-41.3C45,104.2,44,97.5,44.1,90.6z"/>
<path class="st2" d="M109.2,141c-20.7,0-39.6-13-46.7-32.2c-0.5-1.3-2.7-3.4,0.5-4.4c2.5-0.8,4.1-0.5,5.3,2.5
	c8,19.3,26.6,30.5,46,27.9c20.8-2.7,36.1-18.2,38.7-39.7c0.4-3.3,1.9-3.8,4.4-3.7c3.2,0.2,1.8,2.7,1.7,4.2
	C156.9,120.9,134.8,141,109.2,141z"/>
<path class="st3" d="M109.5,41c20.8,0.1,39.8,13.6,46.6,33.1c0.6,1.7,2.2,3.7-1.1,4.8c-2.7,0.9-3.7-0.4-4.6-2.7
	C139.9,50,113.6,40,88.1,52.5c-3.4,1.7-4.9,0-6-2c-1.3-2.4,1.8-2.6,3-3.3C92.7,43,100.8,40.9,109.5,41z"/>
<path class="st0" d="M174.1,92c-0.2,14.1-4.8,27.3-13.9,39.1c-1.3,1.7-2.2,3.6-5,1.4c-2.9-2.2-0.9-3.5,0.3-5.1
	c14.2-19.3,16.5-39.8,6.8-61.7c-0.7-1.5-2.3-3-0.1-4.8c2-1.6,3.3-2.5,4.8,0.6C171.7,70.8,174.1,80.7,174.1,92z"/>
<path class="st0" d="M107.6,61.6c-4.7,0.8-9.1,1.6-13.1,3.7C78.7,74,74.3,94,85.1,108.6c0.8,1.1,2.7,2,1.8,3.7
	c-0.7,1.3-1.7,2.6-3,3.2c-1.1,0.6-1.9-1-2.6-1.9c-8.2-10.4-10.8-22-6.1-34.6c4.8-12.8,14.3-20.1,27.6-22.7
	C107.5,55.4,106.5,59.2,107.6,61.6z"/>
<path class="st4" d="M-123.7,215.9"/>
<circle class="st5" cx="109.8" cy="91.6" r="78.2"/>
</svg>
